<svg width="41" height="42" viewBox="0 0 41 42" fill="none" xmlns="http://www.w3.org/2000/svg">
<ellipse cx="20.5" cy="20.8767" rx="20.5" ry="20.2192" fill="#DABCF1"/>
<path d="M18.3403 14.0774C20.0373 11.9764 22.9289 11.2682 25.4048 12.3471L29.0508 13.936C32.2583 15.3338 33.5943 19.1683 31.9497 22.2566L30.9638 24.1079C29.9217 26.0649 27.8852 27.2877 25.6679 27.2877H13.9595C11.9716 27.2877 10.1457 26.1914 9.21126 24.4367L9.14947 24.3206C7.2693 20.79 9.82799 16.5285 13.8281 16.5285C15.4296 16.5285 16.9452 15.8045 17.9516 14.5586L18.3403 14.0774Z" fill="black"/>
<ellipse cx="12.5" cy="26.3013" rx="3.5" ry="3.94521" fill="black"/>
<ellipse cx="27.5" cy="26.3013" rx="3.5" ry="3.94521" fill="black"/>
</svg>
